<mxfile host="app.diagrams.net" modified="2024-04-27T17:32:51.663Z" agent="Mozilla/5.0 (Macintosh; Intel Mac OS X 10_15_7) AppleWebKit/537.36 (KHTML, like Gecko) Chrome/124.0.0.0 Safari/537.36 Edg/124.0.0.0" etag="oJhxUVFKy6f1HPVmUJWn" version="24.3.0" type="github">
  <diagram name="Page-1" id="V1l-dA5tbcj-XdferGQP">
    <mxGraphModel dx="2335" dy="1692" grid="1" gridSize="10" guides="1" tooltips="1" connect="1" arrows="1" fold="1" page="0" pageScale="1" pageWidth="827" pageHeight="1169" math="0" shadow="0">
      <root>
        <mxCell id="0" />
        <mxCell id="1" parent="0" />
        <mxCell id="NF64KttSVe0JWkwFhkoI-11" value="&lt;h1 style=&quot;margin-top: 0px; font-size: 32px;&quot;&gt;&lt;font color=&quot;#000000&quot; style=&quot;font-size: 32px;&quot;&gt;&lt;span style=&quot;background-color: initial;&quot;&gt;&lt;font style=&quot;font-size: 32px;&quot;&gt;Feeds View&lt;/font&gt;&lt;/span&gt;&lt;br&gt;&lt;/font&gt;&lt;/h1&gt;&lt;div style=&quot;&quot;&gt;&lt;span style=&quot;background-color: initial;&quot;&gt;&lt;font color=&quot;#666666&quot; size=&quot;1&quot; style=&quot;&quot;&gt;&lt;b style=&quot;font-size: 24px;&quot;&gt;Functional Requirements&lt;/b&gt;&lt;/font&gt;&lt;/span&gt;&lt;/div&gt;&lt;div style=&quot;&quot;&gt;&lt;br&gt;&lt;/div&gt;&lt;div style=&quot;&quot;&gt;&lt;span style=&quot;background-color: initial;&quot;&gt;&lt;font color=&quot;#666666&quot; size=&quot;1&quot; style=&quot;&quot;&gt;&lt;b style=&quot;font-size: 24px;&quot;&gt;# Reader Flow&lt;/b&gt;&lt;/font&gt;&lt;/span&gt;&lt;/div&gt;&lt;div style=&quot;&quot;&gt;&lt;ol style=&quot;font-size: 20px;&quot;&gt;&lt;li&gt;&lt;b&gt;Feed: Infinite scroll of posts&lt;/b&gt;&lt;/li&gt;&lt;li&gt;&lt;b&gt;Post: Text, Images, Videos&lt;/b&gt;&lt;/li&gt;&lt;li&gt;&lt;b&gt;Notifier of new posts&lt;/b&gt;&lt;/li&gt;&lt;/ol&gt;&lt;div style=&quot;font-size: 20px;&quot;&gt;&lt;div style=&quot;font-size: 12px;&quot;&gt;&lt;span style=&quot;background-color: initial;&quot;&gt;&lt;font color=&quot;#666666&quot; size=&quot;1&quot;&gt;&lt;b style=&quot;font-size: 24px;&quot;&gt;Non Functional Requirements&lt;/b&gt;&lt;/font&gt;&lt;/span&gt;&lt;/div&gt;&lt;div style=&quot;font-size: 12px;&quot;&gt;&lt;ol style=&quot;font-size: 20px;&quot;&gt;&lt;li&gt;&lt;b&gt;Smooth scroll&lt;/b&gt;&lt;/li&gt;&lt;li&gt;&lt;b&gt;Offline support&lt;/b&gt;&lt;/li&gt;&lt;li&gt;&lt;b&gt;Optimization for APis, images&lt;/b&gt;&lt;/li&gt;&lt;/ol&gt;&lt;/div&gt;&lt;div&gt;&lt;ol&gt;&lt;/ol&gt;&lt;/div&gt;&lt;/div&gt;&lt;div style=&quot;&quot;&gt;&lt;div style=&quot;font-size: 12px;&quot;&gt;&lt;span style=&quot;background-color: initial;&quot;&gt;&lt;font color=&quot;#666666&quot; size=&quot;1&quot;&gt;&lt;b style=&quot;font-size: 24px;&quot;&gt;Out of scope&lt;/b&gt;&lt;/font&gt;&lt;/span&gt;&lt;/div&gt;&lt;div style=&quot;&quot;&gt;&lt;ol style=&quot;font-size: 20px;&quot;&gt;&lt;li&gt;&lt;b&gt;React: Like, Comment&lt;/b&gt;&lt;/li&gt;&lt;li&gt;&lt;b&gt;Creator side&lt;/b&gt;&lt;/li&gt;&lt;/ol&gt;&lt;div&gt;&lt;b style=&quot;color: rgb(102, 102, 102); font-size: 24px;&quot;&gt;Assumptions&lt;/b&gt;&lt;/div&gt;&lt;div&gt;&lt;ol style=&quot;font-size: 20px;&quot;&gt;&lt;li&gt;&lt;b&gt;Millions DAU&lt;/b&gt;&lt;/li&gt;&lt;li&gt;&lt;b&gt;Team of 5&amp;nbsp;&lt;/b&gt;&lt;/li&gt;&lt;/ol&gt;&lt;/div&gt;&lt;div&gt;&lt;br&gt;&lt;/div&gt;&lt;div style=&quot;&quot;&gt;&lt;span style=&quot;font-size: 20px;&quot;&gt;&lt;b&gt;&lt;br&gt;&lt;/b&gt;&lt;/span&gt;&lt;/div&gt;&lt;/div&gt;&lt;div style=&quot;font-size: 12px;&quot;&gt;&lt;span style=&quot;background-color: initial;&quot;&gt;&lt;font color=&quot;#666666&quot; size=&quot;1&quot;&gt;&lt;b style=&quot;font-size: 24px;&quot;&gt;&lt;br&gt;&lt;/b&gt;&lt;/font&gt;&lt;/span&gt;&lt;/div&gt;&lt;div style=&quot;font-size: 20px;&quot;&gt;&lt;ol&gt;&lt;/ol&gt;&lt;/div&gt;&lt;/div&gt;&lt;/div&gt;&lt;div style=&quot;&quot;&gt;&lt;span style=&quot;background-color: initial;&quot;&gt;&lt;font size=&quot;1&quot; style=&quot;&quot;&gt;&lt;b style=&quot;font-size: 20px;&quot;&gt;&lt;br&gt;&lt;/b&gt;&lt;/font&gt;&lt;/span&gt;&lt;/div&gt;&lt;div style=&quot;&quot;&gt;&lt;span style=&quot;background-color: initial;&quot;&gt;&lt;font size=&quot;1&quot; style=&quot;&quot;&gt;&lt;b style=&quot;font-size: 20px;&quot;&gt;&amp;nbsp;&lt;/b&gt;&lt;/font&gt;&lt;/span&gt;&lt;/div&gt;&lt;div style=&quot;&quot;&gt;&lt;span style=&quot;background-color: initial;&quot;&gt;&lt;font size=&quot;1&quot; style=&quot;&quot;&gt;&lt;b style=&quot;font-size: 22px;&quot;&gt;&lt;br&gt;&lt;/b&gt;&lt;/font&gt;&lt;/span&gt;&lt;/div&gt;&lt;div&gt;&lt;br&gt;&lt;/div&gt;&lt;div&gt;&lt;br&gt;&lt;/div&gt;" style="text;html=1;whiteSpace=wrap;overflow=hidden;rounded=0;fillColor=#f5f5f5;strokeColor=#666666;fontColor=#333333;" vertex="1" parent="1">
          <mxGeometry x="-200" y="40" width="370" height="640" as="geometry" />
        </mxCell>
        <mxCell id="NF64KttSVe0JWkwFhkoI-12" value="&lt;h1 style=&quot;margin-top: 0px; font-size: 32px;&quot;&gt;&lt;font color=&quot;#000000&quot; style=&quot;font-size: 32px;&quot;&gt;&lt;span style=&quot;background-color: initial;&quot;&gt;&lt;font style=&quot;font-size: 32px;&quot;&gt;Post&lt;/font&gt;&lt;/span&gt;&lt;/font&gt;&lt;/h1&gt;&lt;div style=&quot;&quot;&gt;&lt;span style=&quot;background-color: initial;&quot;&gt;&lt;font size=&quot;1&quot; style=&quot;&quot;&gt;&lt;b style=&quot;font-size: 20px;&quot;&gt;1.&amp;nbsp;&lt;/b&gt;&lt;/font&gt;&lt;/span&gt;&lt;b style=&quot;background-color: initial; font-size: 20px;&quot;&gt;author: UserID&lt;/b&gt;&lt;/div&gt;&lt;div style=&quot;&quot;&gt;&lt;span style=&quot;background-color: initial;&quot;&gt;&lt;font size=&quot;1&quot; style=&quot;&quot;&gt;&lt;b style=&quot;font-size: 20px;&quot;&gt;2. text: String&lt;/b&gt;&lt;/font&gt;&lt;/span&gt;&lt;/div&gt;&lt;div style=&quot;&quot;&gt;&lt;span style=&quot;background-color: initial;&quot;&gt;&lt;font size=&quot;1&quot; style=&quot;&quot;&gt;&lt;b style=&quot;font-size: 20px;&quot;&gt;3. type: 0(0: Text, 1: images, 2: Videos)&lt;/b&gt;&lt;/font&gt;&lt;/span&gt;&lt;/div&gt;&lt;div style=&quot;&quot;&gt;&lt;span style=&quot;background-color: initial;&quot;&gt;&lt;font size=&quot;1&quot; style=&quot;&quot;&gt;&lt;b style=&quot;font-size: 20px;&quot;&gt;4. id: String&lt;/b&gt;&lt;/font&gt;&lt;/span&gt;&lt;/div&gt;&lt;div style=&quot;&quot;&gt;&lt;span style=&quot;background-color: initial;&quot;&gt;&lt;font size=&quot;1&quot; style=&quot;&quot;&gt;&lt;b style=&quot;font-size: 20px;&quot;&gt;5. urls: [String]&lt;/b&gt;&lt;/font&gt;&lt;/span&gt;&lt;/div&gt;&lt;div style=&quot;&quot;&gt;&lt;span style=&quot;background-color: initial;&quot;&gt;&lt;font size=&quot;1&quot; style=&quot;&quot;&gt;&lt;b style=&quot;font-size: 20px;&quot;&gt;&lt;br&gt;&lt;/b&gt;&lt;/font&gt;&lt;/span&gt;&lt;/div&gt;&lt;div style=&quot;&quot;&gt;&lt;span style=&quot;background-color: initial;&quot;&gt;&lt;font size=&quot;1&quot; style=&quot;&quot;&gt;&lt;b style=&quot;font-size: 20px;&quot;&gt;&lt;br&gt;&lt;/b&gt;&lt;/font&gt;&lt;/span&gt;&lt;/div&gt;&lt;div style=&quot;&quot;&gt;&lt;span style=&quot;background-color: initial;&quot;&gt;&lt;font size=&quot;1&quot; style=&quot;&quot;&gt;&lt;b style=&quot;font-size: 22px;&quot;&gt;&lt;br&gt;&lt;/b&gt;&lt;/font&gt;&lt;/span&gt;&lt;/div&gt;&lt;div&gt;&lt;br&gt;&lt;/div&gt;&lt;div&gt;&lt;br&gt;&lt;/div&gt;" style="text;html=1;whiteSpace=wrap;overflow=hidden;rounded=0;fillColor=#f5f5f5;strokeColor=#666666;fontColor=#333333;" vertex="1" parent="1">
          <mxGeometry x="510" y="320" width="250" height="290" as="geometry" />
        </mxCell>
        <mxCell id="NF64KttSVe0JWkwFhkoI-13" value="&lt;h1 style=&quot;margin-top: 0px; font-size: 32px;&quot;&gt;&lt;font color=&quot;#000000&quot; style=&quot;font-size: 32px;&quot;&gt;&lt;span style=&quot;background-color: initial;&quot;&gt;&lt;font style=&quot;font-size: 32px;&quot;&gt;Feed&lt;/font&gt;&lt;/span&gt;&lt;/font&gt;&lt;/h1&gt;&lt;div style=&quot;&quot;&gt;&lt;span style=&quot;background-color: initial;&quot;&gt;&lt;font size=&quot;1&quot; style=&quot;&quot;&gt;&lt;b style=&quot;font-size: 20px;&quot;&gt;1. posts: [Post]&lt;/b&gt;&lt;/font&gt;&lt;/span&gt;&lt;/div&gt;&lt;div style=&quot;&quot;&gt;&lt;span style=&quot;background-color: initial;&quot;&gt;&lt;font size=&quot;1&quot; style=&quot;&quot;&gt;&lt;b style=&quot;font-size: 20px;&quot;&gt;&lt;br&gt;&lt;/b&gt;&lt;/font&gt;&lt;/span&gt;&lt;/div&gt;&lt;div style=&quot;&quot;&gt;&lt;span style=&quot;background-color: initial;&quot;&gt;&lt;font size=&quot;1&quot; style=&quot;&quot;&gt;&lt;b style=&quot;font-size: 22px;&quot;&gt;&lt;br&gt;&lt;/b&gt;&lt;/font&gt;&lt;/span&gt;&lt;/div&gt;&lt;div&gt;&lt;br&gt;&lt;/div&gt;&lt;div&gt;&lt;br&gt;&lt;/div&gt;" style="text;html=1;whiteSpace=wrap;overflow=hidden;rounded=0;fillColor=#f5f5f5;strokeColor=#666666;fontColor=#333333;" vertex="1" parent="1">
          <mxGeometry x="510" y="160" width="250" height="120" as="geometry" />
        </mxCell>
        <mxCell id="NF64KttSVe0JWkwFhkoI-14" value="&lt;h1 style=&quot;margin-top: 0px;&quot;&gt;&lt;span style=&quot;background-color: initial; font-weight: normal;&quot;&gt;&lt;font style=&quot;&quot;&gt;&lt;b style=&quot;font-size: 32px;&quot;&gt;&lt;font color=&quot;#000000&quot;&gt;User&lt;/font&gt;&lt;/b&gt;&lt;/font&gt;&lt;/span&gt;&lt;/h1&gt;&lt;h1 style=&quot;margin-top: 0px;&quot;&gt;&lt;span style=&quot;font-size: 20px;&quot;&gt;1. id: String&lt;/span&gt;&lt;/h1&gt;&lt;div&gt;&lt;span style=&quot;font-size: 20px;&quot;&gt;&lt;b&gt;2. name: String&lt;/b&gt;&lt;/span&gt;&lt;/div&gt;" style="text;html=1;whiteSpace=wrap;overflow=hidden;rounded=0;fillColor=#f5f5f5;strokeColor=#666666;fontColor=#333333;" vertex="1" parent="1">
          <mxGeometry x="510" y="-10" width="250" height="140" as="geometry" />
        </mxCell>
        <mxCell id="NF64KttSVe0JWkwFhkoI-15" value="&lt;h1 style=&quot;margin-top: 0px; font-size: 32px;&quot;&gt;&lt;font color=&quot;#000000&quot; style=&quot;font-size: 32px;&quot;&gt;&lt;span style=&quot;background-color: initial;&quot;&gt;&lt;font style=&quot;font-size: 32px;&quot;&gt;get Feed/post_id:&amp;amp;direction: prev,after&lt;/font&gt;&lt;/span&gt;&lt;br&gt;&lt;/font&gt;&lt;/h1&gt;&lt;div style=&quot;&quot;&gt;&lt;br&gt;&lt;/div&gt;&lt;div style=&quot;&quot;&gt;&lt;span style=&quot;background-color: initial;&quot;&gt;&lt;font size=&quot;1&quot; style=&quot;&quot;&gt;&lt;b style=&quot;font-size: 22px;&quot;&gt;&lt;br&gt;&lt;/b&gt;&lt;/font&gt;&lt;/span&gt;&lt;/div&gt;&lt;div&gt;&lt;br&gt;&lt;/div&gt;&lt;div&gt;&lt;br&gt;&lt;/div&gt;" style="text;html=1;whiteSpace=wrap;overflow=hidden;rounded=0;fillColor=#f5f5f5;strokeColor=#666666;fontColor=#333333;" vertex="1" parent="1">
          <mxGeometry x="990" y="-70" width="440" height="160" as="geometry" />
        </mxCell>
        <mxCell id="NF64KttSVe0JWkwFhkoI-16" value="&lt;h1 style=&quot;margin-top: 0px; font-size: 32px;&quot;&gt;&lt;font color=&quot;#000000&quot;&gt;registerNewPosts: userID, FirstPostID&lt;/font&gt;&lt;/h1&gt;" style="text;html=1;whiteSpace=wrap;overflow=hidden;rounded=0;fillColor=#f5f5f5;strokeColor=#666666;fontColor=#333333;" vertex="1" parent="1">
          <mxGeometry x="990" y="150" width="440" height="160" as="geometry" />
        </mxCell>
        <mxCell id="NF64KttSVe0JWkwFhkoI-17" value="&lt;b&gt;&lt;font style=&quot;font-size: 24px;&quot;&gt;APIs&lt;/font&gt;&lt;/b&gt;" style="rounded=1;whiteSpace=wrap;html=1;" vertex="1" parent="1">
          <mxGeometry x="2200" y="-80" width="120" height="60" as="geometry" />
        </mxCell>
        <mxCell id="NF64KttSVe0JWkwFhkoI-18" value="&lt;b&gt;&lt;font style=&quot;font-size: 24px;&quot;&gt;SSE&lt;/font&gt;&lt;/b&gt;" style="rounded=1;whiteSpace=wrap;html=1;" vertex="1" parent="1">
          <mxGeometry x="2440" y="-80" width="120" height="60" as="geometry" />
        </mxCell>
        <mxCell id="NF64KttSVe0JWkwFhkoI-20" value="" style="endArrow=none;dashed=1;html=1;dashPattern=1 3;strokeWidth=2;rounded=0;" edge="1" parent="1">
          <mxGeometry width="50" height="50" relative="1" as="geometry">
            <mxPoint x="1910" as="sourcePoint" />
            <mxPoint x="2780" as="targetPoint" />
          </mxGeometry>
        </mxCell>
        <mxCell id="NF64KttSVe0JWkwFhkoI-21" value="&lt;font style=&quot;font-size: 24px;&quot;&gt;&lt;b&gt;Infrastructure&lt;/b&gt;&lt;/font&gt;" style="text;html=1;align=center;verticalAlign=middle;whiteSpace=wrap;rounded=0;" vertex="1" parent="1">
          <mxGeometry x="1960" y="45" width="160" height="30" as="geometry" />
        </mxCell>
        <mxCell id="NF64KttSVe0JWkwFhkoI-22" value="&lt;b&gt;&lt;font style=&quot;font-size: 24px;&quot;&gt;&amp;lt;NetworkService&amp;gt;&lt;/font&gt;&lt;/b&gt;" style="rounded=1;whiteSpace=wrap;html=1;" vertex="1" parent="1">
          <mxGeometry x="1890" y="170" width="245" height="60" as="geometry" />
        </mxCell>
        <mxCell id="NF64KttSVe0JWkwFhkoI-23" value="&lt;b&gt;&lt;font style=&quot;font-size: 24px;&quot;&gt;&amp;lt;CachingService&amp;gt;&lt;/font&gt;&lt;/b&gt;" style="rounded=1;whiteSpace=wrap;html=1;" vertex="1" parent="1">
          <mxGeometry x="1890" y="280" width="245" height="60" as="geometry" />
        </mxCell>
        <mxCell id="NF64KttSVe0JWkwFhkoI-24" value="&lt;b&gt;&lt;font style=&quot;font-size: 24px;&quot;&gt;&amp;lt;EventService&amp;gt;&lt;/font&gt;&lt;/b&gt;" style="rounded=1;whiteSpace=wrap;html=1;" vertex="1" parent="1">
          <mxGeometry x="1890" y="410" width="245" height="60" as="geometry" />
        </mxCell>
        <mxCell id="NF64KttSVe0JWkwFhkoI-25" value="&lt;b&gt;&lt;font style=&quot;font-size: 24px;&quot;&gt;&amp;lt;StorageService&amp;gt;&lt;/font&gt;&lt;/b&gt;" style="rounded=1;whiteSpace=wrap;html=1;" vertex="1" parent="1">
          <mxGeometry x="1890" y="520" width="245" height="60" as="geometry" />
        </mxCell>
        <mxCell id="NF64KttSVe0JWkwFhkoI-26" value="&lt;b&gt;&lt;font style=&quot;font-size: 24px;&quot;&gt;&amp;lt;StorageService&amp;gt;&lt;/font&gt;&lt;/b&gt;" style="rounded=1;whiteSpace=wrap;html=1;" vertex="1" parent="1">
          <mxGeometry x="1890" y="630" width="245" height="60" as="geometry" />
        </mxCell>
        <mxCell id="NF64KttSVe0JWkwFhkoI-27" value="&lt;b&gt;&lt;font style=&quot;font-size: 24px;&quot;&gt;&amp;lt;MediaService&amp;gt;&lt;/font&gt;&lt;/b&gt;" style="rounded=1;whiteSpace=wrap;html=1;" vertex="1" parent="1">
          <mxGeometry x="1890" y="720" width="245" height="60" as="geometry" />
        </mxCell>
        <mxCell id="NF64KttSVe0JWkwFhkoI-28" value="&lt;font style=&quot;font-size: 24px;&quot;&gt;&lt;b&gt;Repository&lt;/b&gt;&lt;/font&gt;" style="text;html=1;align=center;verticalAlign=middle;whiteSpace=wrap;rounded=0;" vertex="1" parent="1">
          <mxGeometry x="2340" y="45" width="160" height="30" as="geometry" />
        </mxCell>
        <mxCell id="NF64KttSVe0JWkwFhkoI-53" style="edgeStyle=orthogonalEdgeStyle;rounded=0;orthogonalLoop=1;jettySize=auto;html=1;entryX=0;entryY=0.5;entryDx=0;entryDy=0;" edge="1" parent="1" source="NF64KttSVe0JWkwFhkoI-29" target="NF64KttSVe0JWkwFhkoI-33">
          <mxGeometry relative="1" as="geometry" />
        </mxCell>
        <mxCell id="NF64KttSVe0JWkwFhkoI-29" value="&lt;b&gt;&lt;font style=&quot;font-size: 24px;&quot;&gt;&amp;lt;FeedServiceRepository&amp;gt;&lt;/font&gt;&lt;/b&gt;" style="rounded=1;whiteSpace=wrap;html=1;" vertex="1" parent="1">
          <mxGeometry x="2700" y="130" width="335" height="60" as="geometry" />
        </mxCell>
        <mxCell id="NF64KttSVe0JWkwFhkoI-30" value="&lt;b&gt;&lt;font style=&quot;font-size: 24px;&quot;&gt;&amp;lt;SSERepository&amp;gt;&lt;/font&gt;&lt;/b&gt;" style="rounded=1;whiteSpace=wrap;html=1;" vertex="1" parent="1">
          <mxGeometry x="2710" y="340" width="335" height="60" as="geometry" />
        </mxCell>
        <mxCell id="NF64KttSVe0JWkwFhkoI-31" value="&lt;font style=&quot;font-size: 24px;&quot;&gt;&lt;b&gt;Domain&lt;/b&gt;&lt;/font&gt;" style="text;html=1;align=center;verticalAlign=middle;whiteSpace=wrap;rounded=0;" vertex="1" parent="1">
          <mxGeometry x="2787.5" y="45" width="160" height="30" as="geometry" />
        </mxCell>
        <mxCell id="NF64KttSVe0JWkwFhkoI-33" value="&lt;b&gt;&lt;font style=&quot;font-size: 24px;&quot;&gt;&amp;lt;GetFeeduseCase&amp;gt;&lt;/font&gt;&lt;/b&gt;" style="rounded=1;whiteSpace=wrap;html=1;" vertex="1" parent="1">
          <mxGeometry x="2710" y="240" width="335" height="60" as="geometry" />
        </mxCell>
        <mxCell id="NF64KttSVe0JWkwFhkoI-34" value="&lt;b&gt;&lt;font style=&quot;font-size: 24px;&quot;&gt;&amp;lt;SSEuseCase&amp;gt;&lt;/font&gt;&lt;/b&gt;" style="rounded=1;whiteSpace=wrap;html=1;" vertex="1" parent="1">
          <mxGeometry x="2700" y="430" width="335" height="60" as="geometry" />
        </mxCell>
        <mxCell id="NF64KttSVe0JWkwFhkoI-35" value="&lt;font style=&quot;font-size: 24px;&quot;&gt;&lt;b&gt;Presentation&lt;/b&gt;&lt;/font&gt;" style="text;html=1;align=center;verticalAlign=middle;whiteSpace=wrap;rounded=0;" vertex="1" parent="1">
          <mxGeometry x="3240" y="45" width="160" height="30" as="geometry" />
        </mxCell>
        <mxCell id="NF64KttSVe0JWkwFhkoI-36" value="&lt;b&gt;&lt;font style=&quot;font-size: 24px;&quot;&gt;Feed UI&lt;br&gt;&lt;br&gt;TableView&lt;/font&gt;&lt;/b&gt;&lt;div&gt;&lt;b&gt;&lt;font style=&quot;font-size: 24px;&quot;&gt;New Posts Button&lt;/font&gt;&lt;/b&gt;&lt;/div&gt;" style="rounded=1;whiteSpace=wrap;html=1;" vertex="1" parent="1">
          <mxGeometry x="3460" y="230" width="335" height="160" as="geometry" />
        </mxCell>
        <mxCell id="NF64KttSVe0JWkwFhkoI-37" value="&lt;b&gt;&lt;font style=&quot;font-size: 24px;&quot;&gt;&amp;lt;Feed ViewModel&amp;gt;&lt;br&gt;feed: [FeedViewModel]&lt;/font&gt;&lt;/b&gt;&lt;div&gt;&lt;b&gt;&lt;font style=&quot;font-size: 24px;&quot;&gt;firstPostID: String&lt;/font&gt;&lt;/b&gt;&lt;/div&gt;&lt;div&gt;&lt;b&gt;&lt;font style=&quot;font-size: 24px;&quot;&gt;newFeed: Bool&lt;/font&gt;&lt;/b&gt;&lt;/div&gt;" style="rounded=1;whiteSpace=wrap;html=1;" vertex="1" parent="1">
          <mxGeometry x="3090" y="240" width="335" height="160" as="geometry" />
        </mxCell>
        <mxCell id="NF64KttSVe0JWkwFhkoI-38" value="&lt;b&gt;&lt;font style=&quot;font-size: 24px;&quot;&gt;Post UI&lt;br&gt;&lt;br&gt;Text&lt;br&gt;Images/Videos/Frame&lt;/font&gt;&lt;/b&gt;" style="rounded=1;whiteSpace=wrap;html=1;" vertex="1" parent="1">
          <mxGeometry x="3460" y="430" width="335" height="160" as="geometry" />
        </mxCell>
        <mxCell id="NF64KttSVe0JWkwFhkoI-39" value="&lt;b&gt;&lt;font style=&quot;font-size: 24px;&quot;&gt;CDN&lt;/font&gt;&lt;/b&gt;" style="rounded=1;whiteSpace=wrap;html=1;" vertex="1" parent="1">
          <mxGeometry x="1960" y="-80" width="120" height="60" as="geometry" />
        </mxCell>
        <mxCell id="NF64KttSVe0JWkwFhkoI-40" value="&lt;b&gt;&lt;font style=&quot;font-size: 24px;&quot;&gt;&amp;lt;ImagesRepostiory&amp;gt;&lt;/font&gt;&lt;/b&gt;" style="rounded=1;whiteSpace=wrap;html=1;" vertex="1" parent="1">
          <mxGeometry x="2690" y="630" width="335" height="60" as="geometry" />
        </mxCell>
        <mxCell id="NF64KttSVe0JWkwFhkoI-41" value="&lt;span style=&quot;font-size: 24px;&quot;&gt;&lt;b&gt;protocol FeedUseCase {&lt;/b&gt;&lt;/span&gt;&lt;div&gt;&lt;span style=&quot;font-size: 24px;&quot;&gt;&lt;b&gt;func getFeed(post_id: String, direction: String,&amp;nbsp;&lt;/b&gt;&lt;/span&gt;&lt;/div&gt;&lt;div&gt;&lt;span style=&quot;font-size: 24px;&quot;&gt;&lt;b&gt;&lt;span style=&quot;white-space: pre;&quot;&gt;&#x9;&lt;/span&gt;&lt;span style=&quot;white-space: pre;&quot;&gt;&#x9;&lt;/span&gt;&lt;span style=&quot;white-space: pre;&quot;&gt;&#x9;&lt;/span&gt;completion: @escaping Result([Feed], Error)-&amp;gt;Void)&lt;/b&gt;&lt;/span&gt;&lt;/div&gt;&lt;div&gt;&lt;b style=&quot;font-size: 24px; background-color: initial;&quot;&gt;}&lt;/b&gt;&lt;/div&gt;" style="rounded=1;whiteSpace=wrap;html=1;align=left;" vertex="1" parent="1">
          <mxGeometry x="3650" y="-360" width="735" height="160" as="geometry" />
        </mxCell>
        <mxCell id="NF64KttSVe0JWkwFhkoI-49" value="&lt;span style=&quot;font-size: 24px;&quot;&gt;&lt;b&gt;protocol newFeedUseCase {&lt;/b&gt;&lt;/span&gt;&lt;div&gt;&lt;span style=&quot;font-size: 24px;&quot;&gt;&lt;b&gt;func registerForNewFeedUseCase(firstPostID:&amp;nbsp; String,&amp;nbsp;&lt;/b&gt;&lt;/span&gt;&lt;/div&gt;&lt;div&gt;&lt;span style=&quot;font-size: 24px;&quot;&gt;&lt;b&gt;userId: String, completion: @escaping (Bool)-&amp;gt;Void&lt;/b&gt;&lt;/span&gt;&lt;b style=&quot;font-size: 24px; background-color: initial;&quot;&gt;)&lt;/b&gt;&lt;/div&gt;&lt;div&gt;&lt;b style=&quot;font-size: 24px; background-color: initial;&quot;&gt;}&lt;/b&gt;&lt;/div&gt;" style="rounded=1;whiteSpace=wrap;html=1;align=left;" vertex="1" parent="1">
          <mxGeometry x="3650" y="-150" width="735" height="160" as="geometry" />
        </mxCell>
        <mxCell id="NF64KttSVe0JWkwFhkoI-50" value="&lt;span style=&quot;font-size: 24px;&quot;&gt;&lt;b&gt;Feed&lt;/b&gt;&lt;/span&gt;" style="rounded=1;whiteSpace=wrap;html=1;" vertex="1" parent="1">
          <mxGeometry x="2700" y="530" width="335" height="60" as="geometry" />
        </mxCell>
        <mxCell id="NF64KttSVe0JWkwFhkoI-51" style="edgeStyle=orthogonalEdgeStyle;rounded=0;orthogonalLoop=1;jettySize=auto;html=1;entryX=0.448;entryY=0;entryDx=0;entryDy=0;entryPerimeter=0;" edge="1" parent="1" source="NF64KttSVe0JWkwFhkoI-22" target="NF64KttSVe0JWkwFhkoI-29">
          <mxGeometry relative="1" as="geometry" />
        </mxCell>
        <mxCell id="NF64KttSVe0JWkwFhkoI-52" style="edgeStyle=orthogonalEdgeStyle;rounded=0;orthogonalLoop=1;jettySize=auto;html=1;entryX=0.47;entryY=0.992;entryDx=0;entryDy=0;entryPerimeter=0;" edge="1" parent="1" source="NF64KttSVe0JWkwFhkoI-23" target="NF64KttSVe0JWkwFhkoI-29">
          <mxGeometry relative="1" as="geometry" />
        </mxCell>
      </root>
    </mxGraphModel>
  </diagram>
</mxfile>
